<svg xmlns="http://www.w3.org/2000/svg" width="400" height="400" viewBox="0 0 400 400">
  <defs>
    <linearGradient id="bg" x1="0" y1="0" x2="1" y2="1">
      <stop offset="0%" stop-color="#b6e3f4"/>
      <stop offset="100%" stop-color="#e0f2fe"/>
    </linearGradient>
  </defs>
  <rect width="100%" height="100%" fill="url(#bg)"/>
  <g transform="translate(200 210)">
    <circle r="110" fill="#fde68a"/>
    <circle r="90" cy="-10" fill="#fef3c7"/>
    <circle r="70" cy="-20" fill="#fef9c3"/>
  </g>
  <g transform="translate(200 190)">
    <circle r="90" fill="#f4d1b5"/>
    <ellipse rx="70" ry="60" cy="10" fill="#f0c6a8"/>
    <circle r="10" cx="-28" cy="0" fill="#1f2937"/>
    <circle r="10" cx="28" cy="0" fill="#1f2937"/>
    <path d="M-22 28q22 16 44 0" fill="none" stroke="#1f2937" stroke-width="6" stroke-linecap="round"/>
  </g>
  <g transform="translate(200 145)">
    <path d="M-80 0c20-26 60-26 80-26s60 0 80 26v24c-20 18-60 28-80 28s-60-10-80-28z" fill="#1f2937"/>
  </g>
  <g transform="translate(200 300)">
    <rect x="-90" y="-30" width="180" height="80" rx="20" fill="#0ea5e9"/>
  </g>
</svg>
